<?xml version="1.0" encoding="utf-8"?>
<!-- Generator: Adobe Illustrator 25.0.0, SVG Export Plug-In . SVG Version: 6.00 Build 0)  -->
<svg version="1.1" id="Layer_10" xmlns="http://www.w3.org/2000/svg" xmlns:xlink="http://www.w3.org/1999/xlink" x="0px" y="0px"
	 viewBox="0 0 3000 3000" style="enable-background:new 0 0 3000 3000;" xml:space="preserve">
<style type="text/css">
	.st0{fill:#72BF44;}
	.st1{fill:#6B6B6B;}
	.st2{fill:#757575;}
	.st3{fill:#474747;}
	.st4{fill:#E5C79C;}
	.st5{fill:#F4D8A8;}
	.st6{fill:#C16827;}
	.st7{fill:#1C1C1C;}
	.st8{opacity:0.2;}
</style>
<path class="st0" d="M2700,1500c0-662.74-537.26-1200-1200-1200S300,837.26,300,1500s537.26,1200,1200,1200S2700,2162.74,2700,1500
	L2700,1500z"/>
<path class="st1" d="M2469.01,2207.83l-12.99-26.56c-42.66-87.26-122.98-150.14-217.94-170.61c-87.17-18.8-175.04-34.25-263.4-46.34
	l-84.68-11.58v-0.36h-777.02l-0.18-0.19l-0.2,0.19l-87.28,11.94c-88.36,12.09-176.23,27.54-263.4,46.34
	c-94.96,20.47-175.28,83.35-217.94,170.61l-12.99,26.56l-0.06,0.05C749.23,2506.23,1101.99,2700,1500,2700
	s750.77-193.77,969.07-492.12L2469.01,2207.83z"/>
<path class="st2" d="M2270.78,1298.08l0.23,11.66l-0.1,11.69l-0.31,9.1l-0.5,9.03l-0.7,8.97l-0.88,8.9l-1.07,8.85l-1.26,8.78
	l-1.44,8.72l-1.61,8.67l-1.79,8.61l-1.97,8.55l-2.13,8.49l-2.29,8.44l-2.46,8.38l-2.62,8.33l-2.77,8.28l-2.93,8.23l-4.66,12.22
	l-4.98,12.11l-5.26,11.99l-5.53,11.89l-5.77,11.78l-6.01,11.69l-12.62,23.09l-13.34,22.74l-13.93,22.43l-14.42,22.14l-14.83,21.88
	l-29.04,40.89l-30.05,40.09l-30.96,39.36l-31.8,38.7l-65.69,75.7l-67.89,73.92c-19.15,20.43-38.46,40.72-57.92,60.86
	c-90.13,93.61-177.83,189.52-263.04,287.63c-2.7,3.11-5.62,6.03-8.74,8.73c-36.69,31.87-92.27,27.96-124.14-8.73
	c-85.21-98.11-172.91-194.02-263.04-287.63l-83.44-88.25l-80.91-90.32l-39.1-46.27l-37.97-47.15l-36.69-48.19l-35.24-49.34
	l-14.83-21.88l-14.42-22.14l-13.93-22.43l-13.34-22.74l-12.62-23.09l-6.01-11.69l-5.77-11.78l-5.53-11.89l-5.26-11.99l-4.98-12.11
	l-4.66-12.22l-2.93-8.23l-2.77-8.28l-2.62-8.33l-2.46-8.38l-2.29-8.44l-2.13-8.49l-1.97-8.55l-1.79-8.61l-1.61-8.67l-1.44-8.72
	l-1.26-8.78l-1.07-8.85l-0.88-8.9l-0.7-8.97l-0.5-9.03l-0.31-9.1l-0.1-11.69l0.24-11.66l0.63-12.6l1.03-12.56l1.41-12.52l1.78-12.48
	l2.13-12.43l2.49-12.38l2.82-12.34l3.14-12.28l3.45-12.24l3.76-12.18l4.05-12.13l4.33-12.07l4.6-12.02l4.86-11.97l5.1-11.9
	l5.34-11.85l11.35-23.51l12.15-23.26l12.88-23l13.51-22.73l14.06-22.45l14.51-22.16l30.04-43.4l32.47-44.24l33.23-42.99l33.92-41.91
	l34.54-40.99l70.62-79.88l72.19-78.18l30.6-30.8l15.69-14.89l15.98-14.42l16.28-13.87l8.26-6.7l8.34-6.53l8.42-6.34l8.52-6.15
	l8.6-5.94l8.69-5.72l8.79-5.5l8.88-5.26l8.98-5l9.08-4.75l9.18-4.46l9.29-4.19l9.39-3.88l9.51-3.58l9.61-3.26l4.85-1.51l4.88-1.42
	l4.91-1.34l4.93-1.25l4.97-1.16l4.99-1.08l5.03-0.98l5.05-0.89l5.09-0.79l5.12-0.7l5.14-0.61l5.18-0.5l5.21-0.41l5.25-0.3
	c34.44-1.67,68.94-1.67,103.38,0l6.75,0.41l6.69,0.58l6.65,0.74l6.59,0.9l6.54,1.06l6.48,1.22l6.44,1.36l6.39,1.52l6.34,1.66
	l6.3,1.8l6.24,1.95l6.2,2.08l6.15,2.21l6.11,2.35l6.06,2.47l6.01,2.59l5.98,2.72l5.92,2.84l5.89,2.95l5.84,3.06l11.57,6.46
	l11.4,6.87l11.24,7.25l11.1,7.63l10.94,7.96l10.8,8.28l10.67,8.58l10.53,8.84l10.4,9.09l10.28,9.31l20.2,19.18l19.76,19.77
	l38.37,40.56l37.06,40.62l54.46,60.97l53.3,62.51l51.86,64.65l25.3,33.3l24.85,34.07l30.04,43.4l14.51,22.16l14.06,22.45
	l13.51,22.73l12.88,23l12.15,23.26l11.35,23.51l5.34,11.85l5.1,11.9l4.86,11.97l4.6,12.02l4.33,12.07l4.05,12.13l3.76,12.18
	l3.45,12.24l3.14,12.28l2.82,12.34l2.49,12.38l2.13,12.43l1.78,12.48l1.41,12.52l1.03,12.56L2270.78,1298.08z"/>
<path class="st3" d="M2156.24,1418.36l0.07,4.57l-0.02,4.57l-0.12,4.57l-0.22,4.58l-0.31,4.58l-0.4,4.58l-0.5,4.58l-0.6,4.58
	l-0.68,4.58l-0.78,4.57l-0.87,4.57l-0.95,4.56l-1.05,4.55l-1.13,4.55l-1.22,4.54l-2.68,9.06l-3.01,9.02l-1.91,5.27l-2.01,5.25
	l-4.33,10.46l-4.72,10.38l-5.06,10.3l-5.39,10.21l-5.69,10.12l-5.95,10.01l-6.2,9.93l-0.05,0.08l-29.81,44.95l-31.14,44l-32.3,43.17
	l-33.27,42.48l-34.05,41.93l-149.99,176.22c-80.16,93.63-159.98,187.55-239.45,281.76c-2.41,2.85-5.05,5.49-7.89,7.89
	c-27.87,23.5-69.51,19.97-93.01-7.89c-80.06-94.91-160.47-189.53-241.24-283.84l-148.2-174.14l-34.05-41.93l-33.27-42.48
	l-32.3-43.17l-31.14-44l-29.81-44.95l-8.32-13.43l-7.87-13.62l-3.74-6.87l-3.6-6.92l-3.45-6.95l-3.29-7l-3.13-7.03l-2.95-7.06
	l-2.77-7.1l-2.58-7.13l-2.38-7.16l-2.18-7.19l-1.97-7.2l-1.76-7.23l-1.53-7.24l-1.31-7.26l-1.08-7.26l-0.84-7.27l-0.61-7.27
	l-0.37-7.27l-0.13-7.27l0.12-7.25l0.35-7.23l0.6-7.22l0.83-7.18l1.08-7.15l1.31-7.12l1.53-7.07l1.77-7.02l1.98-6.96l1.59-5.09
	l1.71-5.06l1.82-5.04l1.93-5.02l2.04-4.99l2.15-4.97l2.25-4.94l2.35-4.92l2.45-4.88l2.54-4.86l5.36-9.61l5.71-9.48l6.04-9.34
	l6.35-9.18l6.64-9.01l6.9-8.83l7.14-8.66l7.37-8.45l7.57-8.25l7.76-8.04l7.91-7.81l10.51-9.8l10.73-9.41l10.96-9.04l11.16-8.66
	l11.38-8.3l11.57-7.95l11.76-7.61l11.94-7.27l12.12-6.94l12.28-6.63l12.43-6.32l12.59-6.02l12.72-5.73l12.86-5.45l12.98-5.18
	l13.1-4.91l21.27-7.37l21.5-6.72l21.72-6.13l21.92-5.55l22.12-5l22.29-4.49l22.46-3.99l22.6-3.51l22.73-3.05l22.85-2.61l22.95-2.19
	l23.03-1.77l46.26-2.34l46.38-0.77l46.38,0.77l46.26,2.34l23.03,1.77l22.95,2.19l22.85,2.61l22.73,3.05l22.6,3.51l22.46,3.99
	l22.29,4.49l22.12,5l21.92,5.55l21.72,6.13l21.5,6.72l21.27,7.37l13.1,4.91l12.98,5.18l12.86,5.45l12.72,5.73l12.59,6.02l12.43,6.32
	l12.28,6.63l12.12,6.94l11.94,7.27l11.76,7.61l11.57,7.95l11.37,8.3l11.17,8.66l10.96,9.04l10.73,9.41l10.51,9.8l7.91,7.81
	l7.76,8.04l7.57,8.25l7.37,8.45l7.14,8.66l6.9,8.83l6.64,9.01l6.35,9.18l6.04,9.34l5.71,9.48l5.36,9.61l2.54,4.86l2.45,4.88
	l2.35,4.92l2.25,4.94l2.15,4.97l2.04,4.99l1.93,5.02l1.82,5.04l1.71,5.06l1.59,5.09l1.28,4.38l1.18,4.4l1.1,4.42l1.01,4.45
	l0.92,4.46l0.83,4.48l0.74,4.49l0.64,4.51l0.55,4.53l0.46,4.53l0.35,4.55l0.27,4.55L2156.24,1418.36z"/>
<polygon class="st4" points="2083.97,1336.95 2084.01,1339 2084,1341.05 2083.94,1343.12 2083.83,1345.19 2083.68,1347.27 
	2083.48,1349.36 2083.23,1351.45 2082.94,1353.54 2082.6,1355.63 2082.22,1357.73 2081.79,1359.82 2081.33,1361.91 2080.81,1364 
	2080.26,1366.08 2079.67,1368.16 2079.04,1370.23 2078.37,1372.28 2077.66,1374.33 2076.91,1376.37 2076.12,1378.4 2075.3,1380.41 
	2074.44,1382.4 2073.54,1384.38 2072.61,1386.35 2071.65,1388.29 2070.65,1390.21 2069.62,1392.11 2068.56,1393.99 2067.46,1395.84 
	2066.27,1397.77 2065.05,1399.68 2063.79,1401.56 2062.5,1403.41 2059.83,1407.05 2057.05,1410.6 2054.17,1414.07 2051.19,1417.47 
	2048.12,1420.81 2044.97,1424.1 2038.48,1430.56 2011.05,1456.1 2004.18,1462.77 1997.43,1469.7 1994.13,1473.29 1990.88,1476.96 
	1987.7,1480.74 1984.59,1484.63 1981.57,1488.63 1978.64,1492.76 1975.81,1497.03 1973.09,1501.45 1971.77,1503.71 1970.49,1506.01 
	1969.23,1508.36 1968.01,1510.74 1960.98,1525.71 1958.56,1530.61 1957.29,1533 1955.98,1535.33 1955.3,1536.47 1954.6,1537.58 
	1953.89,1538.68 1953.16,1539.76 1952.41,1540.81 1951.63,1541.83 1950.84,1542.83 1950.02,1543.81 1949.18,1544.75 
	1948.31,1545.66 1947.42,1546.54 1946.96,1546.97 1946.5,1547.39 1945.81,1547.98 1945.11,1548.55 1944.39,1549.1 1943.66,1549.64 
	1942.92,1550.15 1942.17,1550.64 1941.4,1551.11 1940.62,1551.56 1939.83,1551.99 1939.04,1552.39 1938.23,1552.77 1937.41,1553.13 
	1936.59,1553.46 1935.76,1553.77 1934.92,1554.05 1934.07,1554.31 1933.22,1554.54 1932.36,1554.74 1931.5,1554.92 1930.63,1555.07 
	1929.76,1555.19 1928.88,1555.29 1928.01,1555.35 1927.13,1555.39 1926.25,1555.39 1925.37,1555.37 1924.93,1555.34 
	1924.49,1555.31 1924.05,1555.27 1923.61,1555.22 1923.17,1555.17 1922.73,1555.1 1922.29,1555.03 1921.85,1554.95 1921.41,1554.86 
	1920.97,1554.77 1920.53,1554.66 1920.1,1554.55 1919.66,1554.43 1919.23,1554.3 1918.79,1554.16 1918.36,1554.02 1917.93,1553.86 
	1917.5,1553.7 1917.07,1553.52 1916.64,1553.34 1916.21,1553.15 1915.79,1552.95 1915.36,1552.74 1914.94,1552.52 1914.52,1552.3 
	1914.1,1552.06 1913.68,1551.82 1913.27,1551.56 1912.86,1551.3 1912.45,1551.02 1912.04,1550.74 1911.63,1550.45 1911.22,1550.15 
	1910.82,1549.83 1910.42,1549.51 1910.02,1549.18 1909.63,1548.84 1909.24,1548.49 1908.46,1547.76 1907.69,1546.98 
	1906.94,1546.17 1906.2,1545.32 1905.47,1544.42 1904.76,1543.48 1904.06,1542.5 1903.37,1541.48 1902.7,1540.41 1902.04,1539.3 
	1901.41,1538.14 1900.79,1536.94 1900.18,1535.69 1899.6,1534.4 1899.03,1533.06 1898.48,1531.67 1897.96,1530.24 1897.45,1528.76 
	1896.96,1527.22 1961.35,1355.66 1976.76,1311.62 1977.9,1308.11 1977.92,1308.11 1996.56,1291.67 1999.15,1289.53 2000.34,1288.61 
	2001.56,1287.72 2002.82,1286.87 2004.12,1286.04 2005.44,1285.26 2006.8,1284.51 2008.2,1283.8 2009.62,1283.14 2011.07,1282.52 
	2012.54,1281.94 2014.03,1281.42 2015.55,1280.94 2017.09,1280.5 2018.64,1280.12 2020.2,1279.79 2021.78,1279.52 2023.36,1279.29 
	2024.95,1279.12 2026.54,1279 2028.13,1278.93 2029.73,1278.92 2031.31,1278.96 2032.89,1279.05 2034.46,1279.19 2036.02,1279.38 
	2037.56,1279.62 2039.08,1279.91 2040.59,1280.24 2042.08,1280.62 2043.54,1281.04 2044.98,1281.51 2046.39,1282.02 
	2048.58,1282.88 2050.68,1283.8 2051.71,1284.28 2052.72,1284.78 2053.71,1285.28 2054.69,1285.8 2055.65,1286.34 2056.59,1286.88 
	2057.51,1287.44 2058.41,1288.01 2059.3,1288.6 2060.17,1289.19 2061.02,1289.8 2061.86,1290.42 2062.68,1291.05 2063.48,1291.69 
	2064.26,1292.35 2065.03,1293.01 2065.79,1293.69 2066.52,1294.37 2067.24,1295.07 2067.94,1295.78 2068.63,1296.5 2069.3,1297.23 
	2069.95,1297.96 2070.59,1298.71 2071.21,1299.47 2071.82,1300.24 2072.41,1301.02 2072.98,1301.8 2073.54,1302.6 2074.08,1303.4 
	2074.61,1304.22 2075.12,1305.04 2075.62,1305.87 2076.1,1306.71 2076.57,1307.56 2077.02,1308.41 2077.88,1310.14 2078.68,1311.91 
	2079.42,1313.7 2080.1,1315.52 2080.73,1317.36 2081.29,1319.23 2081.81,1321.12 2082.27,1323.04 2082.67,1324.97 2083.02,1326.93 
	2083.31,1328.9 2083.55,1330.89 2083.75,1332.9 2083.88,1334.92 "/>
<path class="st4" d="M1074.63,1555.37l-0.88,0.02h-0.88l-0.88-0.04l-0.87-0.06l-0.88-0.1l-0.87-0.12l-0.87-0.15l-0.86-0.18
	l-0.86-0.2l-0.85-0.23l-0.85-0.26l-0.84-0.28l-0.83-0.31l-0.82-0.33l-0.82-0.36l-0.81-0.38l-0.8-0.4l-0.78-0.43l-0.78-0.45
	l-0.77-0.47l-0.75-0.49l-0.74-0.51l-0.73-0.54l-0.72-0.55l-0.7-0.57l-0.69-0.59l-0.46-0.42l-0.46-0.43l-0.89-0.88l-0.87-0.91
	l-0.84-0.94l-0.82-0.98l-0.79-1l-0.78-1.02l-0.75-1.05l-0.73-1.08l-0.71-1.1l-0.7-1.11l-0.68-1.14l-1.32-2.33l-1.26-2.39l-2.42-4.9
	l-7.03-14.97l-1.22-2.38l-1.26-2.35l-1.28-2.3l-1.32-2.26l-2.72-4.42l-2.83-4.27l-2.93-4.13l-3.02-4l-3.11-3.89l-3.18-3.78
	l-3.25-3.67l-3.3-3.59l-6.75-6.93l-6.87-6.67l-27.43-25.54l-6.49-6.46l-3.15-3.29l-3.07-3.34l-2.98-3.4l-2.88-3.47l-2.78-3.55
	l-2.67-3.64l-1.29-1.85l-1.26-1.88l-1.22-1.91l-1.19-1.93l-1.1-1.85l-1.06-1.88l-1.03-1.9l-1-1.92l-0.96-1.94l-0.93-1.97l-0.9-1.98
	l-0.86-1.99l-0.82-2.01l-0.79-2.03l-0.75-2.04l-0.71-2.05l-0.67-2.05l-0.63-2.07l-0.59-2.08l-0.55-2.08l-0.52-2.09l-0.46-2.09
	l-0.43-2.09l-0.38-2.1l-0.34-2.09l-0.29-2.09l-0.25-2.09l-0.2-2.09l-0.15-2.08l-0.11-2.07l-0.06-2.07l-0.01-2.05l0.04-2.05
	l0.08-2.03l0.14-2.02l0.19-2.01l0.25-1.99l0.29-1.97l0.35-1.96l0.4-1.93l0.46-1.92l0.51-1.89l0.57-1.87l0.63-1.84l0.68-1.82
	l0.74-1.79l0.8-1.77l0.86-1.73l0.45-0.85l0.47-0.85l0.48-0.84l0.5-0.83l0.51-0.82l0.53-0.82l0.54-0.8l0.56-0.8l0.57-0.78l0.59-0.78
	l0.61-0.77l0.62-0.76l0.64-0.75l0.65-0.73l0.67-0.73l0.69-0.72l0.7-0.71l0.72-0.7l0.74-0.68l0.75-0.68l0.77-0.66l0.78-0.66l0.8-0.64
	l0.82-0.63l0.84-0.62l0.85-0.61l0.87-0.59l0.89-0.59l0.9-0.57l0.92-0.56l0.94-0.54l0.96-0.54l0.98-0.52l0.99-0.5l1.01-0.5l1.03-0.48
	l2.1-0.92l2.19-0.86l1.41-0.51l1.44-0.47l1.46-0.42l1.49-0.38l1.51-0.33l1.52-0.29l1.54-0.24l1.56-0.19l1.57-0.14l1.58-0.09
	l1.58-0.04l1.59,0.01l1.6,0.07l1.59,0.12l1.59,0.17l1.58,0.23l1.58,0.27l1.56,0.33l1.55,0.38l1.54,0.44l1.52,0.48l1.49,0.52
	l1.47,0.58l1.45,0.62l1.42,0.66l1.4,0.71l1.36,0.75l1.33,0.78l1.29,0.83l1.26,0.85l1.22,0.89l1.19,0.92l13.87,11.69l2.95,2.37
	l2.96,2.24l1.47,1.05l1.47,1c0.01,0.01,0,0.01,0,0.01c27,72.45,53.34,145.14,79.02,218.05c0,0.01,0,0.01,0,0.02
	c0.15,0.42,0.3,0.84,0.45,1.26l-0.49,1.54l-0.51,1.48l-0.52,1.43l-0.55,1.39l-0.57,1.34l-0.58,1.29l-0.61,1.25l-0.62,1.2l-0.63,1.16
	l-0.66,1.11l-0.67,1.07l-0.69,1.02l-0.7,0.98l-0.71,0.94l-0.73,0.9l-0.74,0.85l-0.75,0.81l-0.77,0.78l-0.78,0.73l-0.39,0.35
	l-0.39,0.34l-0.4,0.33l-0.4,0.32l-0.4,0.32l-0.41,0.3l-0.41,0.29l-0.41,0.28l-0.41,0.28l-0.41,0.26l-0.41,0.26l-0.42,0.24
	l-0.42,0.24l-0.42,0.22l-0.42,0.22l-0.43,0.21l-0.42,0.2l-0.43,0.19l-0.43,0.18l-0.43,0.18l-0.43,0.16l-0.43,0.16l-0.43,0.14
	l-0.44,0.14l-0.43,0.13l-0.44,0.12l-0.43,0.11l-0.44,0.11l-0.44,0.09l-0.44,0.09l-0.44,0.08l-0.44,0.07l-0.44,0.07l-0.44,0.05
	l-0.44,0.05l-0.44,0.04l-0.44,0.03L1074.63,1555.37z"/>
<path class="st4" d="M1791.39,1975.89l-7.5-44.35l-23.7-140.2l-0.11,0.14v-0.15H1239.8l-31.49,186.32
	c80.77,94.31,161.18,188.93,241.24,283.84c23.5,27.86,65.14,31.39,93.01,7.89c2.84-2.4,5.48-5.04,7.89-7.89
	c79.47-94.21,159.29-188.13,239.45-281.76l2.52-2.96L1791.39,1975.89z"/>
<path class="st5" d="M2007.8,1176.71l-11.37-8.3l-11.57-7.95l-11.76-7.61l-11.94-7.27l-12.12-6.94l-12.28-6.63l-12.43-6.32
	l-12.59-6.02l-12.72-5.73l-12.86-5.45l-12.98-5.18l-13.1-4.91l-1.31-0.45l-19.96-6.92l-21.5-6.72l-21.72-6.13l-21.92-5.55l-22.12-5
	l-22.29-4.49l-22.46-3.99l-22.6-3.51l-22.73-3.05l-22.85-2.61l-22.95-2.19l-23.03-1.77l-46.26-2.34l-46.38-0.77l-46.38,0.77
	l-46.26,2.34l-23.03,1.77l-22.95,2.19l-22.85,2.61l-22.73,3.05l-22.6,3.51l-22.46,3.99l-22.29,4.49l-22.12,5l-21.92,5.55
	l-21.72,6.13l-21.5,6.72l-19.96,6.92l-1.31,0.45l-13.1,4.91l-12.98,5.18l-12.86,5.45l-12.72,5.73l-12.59,6.02l-12.43,6.32
	l-12.28,6.63l-12.12,6.94l-11.94,7.27l-11.76,7.61l-11.57,7.95l-11.38,8.3l-3.58,2.78l2.22,12.37l2.5,12.45l5.7,24.96l6.56,25.02
	l2.55,8.73l4.76,16.31c3.57,9.51,7.13,19.03,10.67,28.55c0.01,0.01,0,0.01,0,0.01c27,72.45,53.34,145.14,79.02,218.05
	c0,0.01,0,0.01,0,0.02c0.15,0.42,0.3,0.84,0.45,1.26l12.9,35.3l13.81,34.82l14.86,34.26l7.87,16.89l8.18,16.71l8.53,16.53
	l8.87,16.33l9.26,16.13l9.64,15.9l10.05,15.68l10.48,15.44l10.92,15.19l11.39,14.93l6.12,7.78l16.71,20.81l17.36,20.45l8.97,9.98
	l9.17,9.77l9.4,9.52l9.64,9.22l9.89,8.88l5.04,4.31l5.12,4.2l5.19,4.1l5.26,3.99l5.33,3.87l5.41,3.76l5.49,3.63l5.57,3.5l5.65,3.37
	l5.74,3.22l5.82,3.08l5.92,2.93l6,2.78l6.09,2.61c61.05,25.18,129.57,25.18,190.62,0l6.09-2.61l6.01-2.78l5.91-2.93l5.82-3.08
	l5.74-3.22l5.65-3.37l5.57-3.5l5.49-3.63l5.41-3.76l5.33-3.87l5.26-3.99l5.19-4.1l5.12-4.2l5.04-4.31l9.89-8.88l9.64-9.22l9.4-9.52
	l9.17-9.77l8.97-9.98l17.36-20.45l16.71-20.81l6.11-7.77l0.01-0.01l11.39-14.93l10.92-15.19l10.48-15.44l10.05-15.68l9.65-15.9
	l9.25-16.13l8.87-16.33l8.53-16.53l8.18-16.71l7.87-16.89l14.86-34.26l13.81-34.82l12.9-35.3l64.39-171.56l15.41-44.04l1.14-3.51
	l6.03-18.56l6.72-22.09l1.24-4.43l4.94-17.64l5.57-22.04l4.89-21.99l4.1-21.87L2007.8,1176.71z"/>
<path class="st6" d="M1126.82,1103.31l-12.98,5.18l-12.86,5.45l-12.72,5.73l-12.59,6.02l-12.43,6.32l-12.28,6.63l-12.12,6.94
	l-11.94,7.27l-11.76,7.61l-11.57,7.95l-11.38,8.3l-3.58,2.78l2.22,12.37l2.5,12.45l5.7,24.96l6.56,25.02l2.55,8.73l4.76,16.31
	c3.57,9.51,7.13,19.03,10.67,28.55c0.01,0.01,0,0.01,0,0.01c27,72.45,53.34,145.14,79.02,218.05l-3.66-55.31l-1.91-50.27
	l-0.28-23.07l0.18-21.61l0.31-9.89l0.32-10.22l1.1-18.56l0.72-8.68l0.83-8.29l0.94-7.87l1.06-7.47l1.17-7.05l1.28-6.64l1.39-6.22
	l0.74-2.95l0.77-2.85l0.79-2.74l0.81-2.64l0.85-2.53l0.87-2.43l0.9-2.32l0.92-2.21l0.95-2.11l0.97-2l1-1.9l0.51-0.91l0.52-0.89
	l0.52-0.85l0.53-0.83l0.53-0.81l0.54-0.78l0.55-0.75l0.55-0.72l0.56-0.7l0.57-0.67l0.57-0.65l0.58-0.62l0.58-0.6l0.59-0.57
	l-0.13-9.53l-0.08-6.43l0.07-15.45l0.36-14.92l0.65-14.37l0.95-13.8l1.23-13.21l1.53-12.62l1.82-12
	c2.18-12.95,6.05-25.55,11.52-37.48l-1.31,0.45L1126.82,1103.31z"/>
<path class="st6" d="M2007.8,1176.71l-11.37-8.3l-11.57-7.95l-11.76-7.61l-11.94-7.27l-12.12-6.94l-12.28-6.63l-12.43-6.32
	l-12.59-6.02l-12.72-5.73l-12.86-5.45l-12.98-5.18l-13.1-4.91l-1.31-0.45c5.47,11.93,9.34,24.53,11.52,37.48l1.82,12l1.53,12.62
	l1.24,13.21l0.94,13.8l0.65,14.37l0.36,14.92l0.08,15.45l-0.09,6.43l-0.13,9.53l1.54,1.82l1.5,1.91l1.46,2l1.43,2.07l1.4,2.17
	l1.35,2.25l1.33,2.34l1.28,2.42l1.25,2.51l1.21,2.59l1.17,2.68l1.14,2.77l1.1,2.85l1.06,2.94l1.02,3.02l0.98,3.11l0.95,3.19
	l0.9,3.28l1.7,6.8l1.53,7.14l1.38,7.48l1.21,7.8l1.05,8.12l0.9,8.45l0.71,8.62l0.01,0.15l0.57,9.08l0.4,9.39l0.32,19.68l-0.34,20.86
	l-0.99,21.97l-1.62,23.04l-2.26,24.06l-2.88,25.01l-3.49,25.89l64.39-171.56l15.41-44.04l1.14-3.51l6.03-18.56l6.72-22.09l1.24-4.43
	l4.94-17.64l5.57-22.04l4.89-21.99l4.1-21.87L2007.8,1176.71z"/>
<path class="st7" d="M1989.36,1262.31c-37.02-10.4-74.61-18.44-112.54-24.08c-53.48-7.97-107.65-11.18-161.85-9.57
	c-40.58,1.2-80.96,6.35-120.54,15.37c-10.94,2.49-21.46,6.55-31.24,12.04c-39.25,22.03-87.13,22.03-126.38,0
	c-9.78-5.49-20.3-9.55-31.24-12.04c-39.58-9.02-79.96-14.17-120.54-15.37c-54.21-1.61-108.37,1.6-161.85,9.57
	c-38.78,5.78-77.21,14.05-115.04,24.79l4.76,16.31c3.57,9.51,7.13,19.03,10.67,28.55c0.01,0.01,0,0.01,0,0.01h0.01
	c5.34-0.81,10.69-1.56,16.04-2.27c23.99-3.16,46.43,12.53,51.69,36.15c1.8,8.05,3.77,16.06,5.92,24.02
	c6.02,22.32,13.39,44.26,22.1,65.69c11.39,28.04,35.67,48.83,65.13,55.77c52.73,12.42,107.37,14.47,160.88,6.04
	c37.92-5.98,70.33-30.53,86.35-65.41c12.71-27.66,22.96-56.38,30.64-85.83c3.55-13.64,14.21-24.3,27.85-27.85
	c20.8-5.43,42.07,7.04,47.49,27.85c7.68,29.45,17.93,58.17,30.64,85.83c16.02,34.88,48.43,59.43,86.35,65.41
	c53.51,8.43,108.15,6.38,160.88-6.04c29.46-6.94,53.74-27.73,65.13-55.77c11-27.07,19.88-54.95,26.57-83.39
	c0.49-2.1,0.98-4.21,1.45-6.32c5.26-23.62,27.7-39.31,51.69-36.15c4.97,0.66,9.94,1.36,14.89,2.1l2.63,0.39l6.03-18.56l6.72-22.09
	l1.24-4.43L1989.36,1262.31z"/>
<path class="st8" d="M1760.19,1791.34l23.7,140.2l-14.81,16.57l-7.6,8.1l-7.75,7.95l-7.9,7.76l-8.06,7.56l-8.23,7.34l-8.4,7.09
	l-8.59,6.82l-8.78,6.52l-4.47,3.14l-4.51,3.06l-4.57,2.98l-4.62,2.88l-4.68,2.8l-4.73,2.7l-4.79,2.6l-4.85,2.51l-4.9,2.4l-4.96,2.29
	l-5.03,2.19l-5.08,2.08c-61.43,24.22-129.95,23.16-190.6-2.96l-4.08-1.8l-4.03-1.87l-4-1.95l-3.95-2.02l-3.91-2.08l-3.87-2.15
	l-7.61-4.49l-7.47-4.74l-7.31-4.98l-7.17-5.2l-7.03-5.4l-6.89-5.61l-6.76-5.79l-6.64-5.97l-6.51-6.12l-6.4-6.28l-6.28-6.41
	l-12.26-13.19c-42.5-47.27-77.58-100.73-104.01-158.54l6.12,7.78l16.71,20.81l17.36,20.45l8.97,9.98l9.17,9.77l9.4,9.52l9.64,9.22
	l9.89,8.88l5.04,4.31l5.12,4.2l5.19,4.1l5.26,3.99l5.33,3.87l5.41,3.76l5.49,3.63l5.57,3.5l5.65,3.37l5.74,3.22l5.82,3.08l5.92,2.93
	l6,2.78l6.09,2.61c61.05,25.18,129.57,25.18,190.62,0l6.09-2.61l6.01-2.78l5.91-2.93l5.82-3.08l5.74-3.22l5.65-3.37l5.57-3.5
	l5.49-3.63l5.41-3.76l5.33-3.87l5.26-3.99l5.19-4.1l5.12-4.2l5.04-4.31l9.89-8.88l9.64-9.22l9.4-9.52l9.17-9.77l8.97-9.98
	l17.36-20.45l16.71-20.81L1760.19,1791.34z"/>
</svg>
